<svg width="169" height="34" xmlns="http://www.w3.org/2000/svg">
 <g>
  <title>background</title>
  <rect fill="none" id="canvas_background" height="36" width="171" y="-1" x="-1"/>
 </g>
 <g>
  <title>Layer 1</title>
  <path id="svg_4" d="m168.52374,1.188426c0,0 -41.69816,-0.1733 -41.69816,-0.34661c0.00002,0.1733 -13.665766,-2.03122 -15.79397,8.05062c-2.128204,10.08184 -5.940946,16.776723 -26.24894,16.93297c-20.307994,0.156247 -26.092697,-7.65967 -27.49891,-16.62048c-1.406213,-8.96081 -14.544,-7.8159 -14.544,-7.8159c0,0.17331 -41.69816,-0.17331 -41.69816,-0.34662c0,0.17331 -0.2916,33.44839 -0.2916,33.44839c0.00001,0 167.66741,0.17331 167.66741,0.17331c0.00001,0 0.00001,-33.44839 0.00001,-33.44839c-0.00001,0 0,0 0,0" fill-opacity="null" stroke-opacity="null" stroke-width="1.5" fill="#fff" stroke="#fff"/>
 </g>
</svg>